<svg xmlns="http://www.w3.org/2000/svg" viewBox="0 0 1126 1729" width="1126" height="1729" role="img" aria-labelledby="t d" font-family="Geist, 'Geist Sans', Inter, system-ui, -apple-system, 'Segoe UI', sans-serif">
<title id="t">The SDD journey</title><desc id="d">From the first line of product.md to a closed spec, and around again.</desc>
<defs><marker id="arr-fafafa" viewBox="0 0 10 10" refX="9" refY="5" markerWidth="7" markerHeight="7" orient="auto-start-reverse"><path d="M0 0.5 L10 5 L0 9.5 z" fill="#fafafa"/></marker><marker id="arr-e89960" viewBox="0 0 10 10" refX="9" refY="5" markerWidth="7" markerHeight="7" orient="auto-start-reverse"><path d="M0 0.5 L10 5 L0 9.5 z" fill="#e89960"/></marker><marker id="arr-ababab" viewBox="0 0 10 10" refX="9" refY="5" markerWidth="7" markerHeight="7" orient="auto-start-reverse"><path d="M0 0.5 L10 5 L0 9.5 z" fill="#ababab"/></marker><marker id="arr-d7aa42" viewBox="0 0 10 10" refX="9" refY="5" markerWidth="7" markerHeight="7" orient="auto-start-reverse"><path d="M0 0.5 L10 5 L0 9.5 z" fill="#d7aa42"/></marker><marker id="arr-52b5f4" viewBox="0 0 10 10" refX="9" refY="5" markerWidth="7" markerHeight="7" orient="auto-start-reverse"><path d="M0 0.5 L10 5 L0 9.5 z" fill="#52b5f4"/></marker><marker id="arr-5ac576" viewBox="0 0 10 10" refX="9" refY="5" markerWidth="7" markerHeight="7" orient="auto-start-reverse"><path d="M0 0.5 L10 5 L0 9.5 z" fill="#5ac576"/></marker><marker id="arr-b699eb" viewBox="0 0 10 10" refX="9" refY="5" markerWidth="7" markerHeight="7" orient="auto-start-reverse"><path d="M0 0.5 L10 5 L0 9.5 z" fill="#b699eb"/></marker></defs>
<rect x="0" y="0" width="1126" height="1729" rx="0" fill="#0a0a0a"/><text x="40" y="44" font-family="'Geist Mono', ui-monospace, SFMono-Regular, Menlo, Consolas, monospace" font-size="11" fill="#e89960">/</text><text x="52" y="44" font-family="'Geist Mono', ui-monospace, SFMono-Regular, Menlo, Consolas, monospace" font-size="11" fill="#e89960" letter-spacing="0.08em">DIAGRAM 1 · JOURNEY</text><text x="40" y="78" font-family="Fraunces, 'Iowan Old Style', Georgia, serif" font-size="28" fill="#fafafa">The SDD journey</text><rect x="40" y="92" width="40" height="1.5" rx="0" fill="#e89960"/><text x="40" y="114" font-family="Geist, 'Geist Sans', Inter, system-ui, -apple-system, 'Segoe UI', sans-serif" font-size="13" fill="#ababab">From the first line of product.md to a closed spec, and around again.</text><rect x="80" y="144" width="160" height="30" rx="15" fill="#262626" stroke="#333333" stroke-width="1"/><text x="160" y="163" font-family="Geist, 'Geist Sans', Inter, system-ui, -apple-system, 'Segoe UI', sans-serif" font-size="12.5" fill="#fafafa" text-anchor="middle">Blank project</text><path d="M160 174 L160 192 L100 192 L100 214" fill="none" stroke="#ababab" stroke-width="1.5" marker-end="url(#arr-ababab)" stroke-linejoin="round"/><rect x="270" y="144" width="160" height="30" rx="15" fill="#262626" stroke="#333333" stroke-width="1"/><text x="350" y="163" font-family="Geist, 'Geist Sans', Inter, system-ui, -apple-system, 'Segoe UI', sans-serif" font-size="12.5" fill="#fafafa" text-anchor="middle">Existing codebase</text><path d="M350 174 L350 192 L100 192 L100 214" fill="none" stroke="#ababab" stroke-width="1.5" stroke-linejoin="round"/><text x="40" y="228" font-family="Geist, 'Geist Sans', Inter, system-ui, -apple-system, 'Segoe UI', sans-serif" font-size="12" font-weight="600" fill="#fafafa">Project setup</text><text x="146.24" y="228" font-family="'Geist Mono', ui-monospace, SFMono-Regular, Menlo, Consolas, monospace" font-size="11" fill="#ababab" letter-spacing="0.06em">ONCE PER PRODUCT</text><rect x="24" y="238" width="2" height="381" rx="0" fill="#333333"/><text x="40" y="671" font-family="Geist, 'Geist Sans', Inter, system-ui, -apple-system, 'Segoe UI', sans-serif" font-size="12" font-weight="600" fill="#fafafa">One spec</text><text x="113.84" y="671" font-family="'Geist Mono', ui-monospace, SFMono-Regular, Menlo, Consolas, monospace" font-size="11" fill="#ababab" letter-spacing="0.06em">REPEATS IN DEPENDENCY ORDER</text><rect x="24" y="681" width="2" height="800" rx="0" fill="#333333"/><g class="stage-g" data-stage="steering"><rect x="40" y="238" width="976" height="148" rx="10" fill="#0a0a0a" stroke="#333333" stroke-width="1" class="stage"/><text x="54" y="282" font-family="Fraunces, 'Iowan Old Style', Georgia, serif" font-size="30" fill="#e89960">1</text><text x="84" y="268" font-family="Geist, 'Geist Sans', Inter, system-ui, -apple-system, 'Segoe UI', sans-serif" font-size="14.5" font-weight="600" fill="#fafafa">Write the steering</text><text x="84" y="285" font-family="Geist, 'Geist Sans', Inter, system-ui, -apple-system, 'Segoe UI', sans-serif" font-size="14.5" font-weight="600" fill="#fafafa">documents</text><rect x="84" y="308" width="42.5" height="16" rx="8" fill="#e89960" stroke="#e89960" stroke-width="1"/><text x="105.25" y="319.5" font-family="'Geist Mono', ui-monospace, SFMono-Regular, Menlo, Consolas, monospace" font-size="9.5" fill="#0a0a0a" text-anchor="middle" letter-spacing="0.06em">HUMAN</text><rect x="276" y="252" width="232" height="34" rx="6" fill="#2c1b0f" stroke="#e89960" stroke-width="1" class="chip"/><rect x="276" y="252" width="3" height="34" rx="0" fill="#e89960"/><text x="288" y="272" font-family="'Geist Mono', ui-monospace, SFMono-Regular, Menlo, Consolas, monospace" font-size="11" fill="#ababab">1.1</text><text x="316" y="272" font-family="Geist, 'Geist Sans', Inter, system-ui, -apple-system, 'Segoe UI', sans-serif" font-size="13" fill="#fafafa">Draft product.md</text><g class="loopmark" transform="translate(482.5 258.5) scale(0.625)" fill="none" stroke="#e89960" stroke-width="2" stroke-linecap="round" stroke-linejoin="round"><path d="M21 12a9 9 0 1 1-9-9c2.52 0 4.93 1 6.74 2.74L21 8"/><path d="M21 3v5h-5"/></g><rect x="518" y="252" width="232" height="34" rx="6" fill="#2c1b0f" stroke="#e89960" stroke-width="1" class="chip"/><rect x="518" y="252" width="3" height="34" rx="0" fill="#e89960"/><text x="530" y="272" font-family="'Geist Mono', ui-monospace, SFMono-Regular, Menlo, Consolas, monospace" font-size="11" fill="#ababab">1.2</text><text x="558" y="272" font-family="Geist, 'Geist Sans', Inter, system-ui, -apple-system, 'Segoe UI', sans-serif" font-size="13" fill="#fafafa">Draft tech.md</text><g class="loopmark" transform="translate(724.5 258.5) scale(0.625)" fill="none" stroke="#e89960" stroke-width="2" stroke-linecap="round" stroke-linejoin="round"><path d="M21 12a9 9 0 1 1-9-9c2.52 0 4.93 1 6.74 2.74L21 8"/><path d="M21 3v5h-5"/></g><rect x="760" y="252" width="232" height="34" rx="6" fill="#2c1b0f" stroke="#e89960" stroke-width="1" class="chip"/><rect x="760" y="252" width="3" height="34" rx="0" fill="#e89960"/><text x="772" y="272" font-family="'Geist Mono', ui-monospace, SFMono-Regular, Menlo, Consolas, monospace" font-size="11" fill="#ababab">1.3</text><text x="800" y="272" font-family="Geist, 'Geist Sans', Inter, system-ui, -apple-system, 'Segoe UI', sans-serif" font-size="13" fill="#fafafa">Draft structure.md</text><g class="loopmark" transform="translate(966.5 258.5) scale(0.625)" fill="none" stroke="#e89960" stroke-width="2" stroke-linecap="round" stroke-linejoin="round"><path d="M21 12a9 9 0 1 1-9-9c2.52 0 4.93 1 6.74 2.74L21 8"/><path d="M21 3v5h-5"/></g><rect x="276" y="338" width="232" height="34" rx="6" fill="#2c1b0f" stroke="#e89960" stroke-width="1" stroke-dasharray="4 3" class="chip"/><rect x="276" y="338" width="3" height="34" rx="0" fill="#e89960"/><text x="288" y="358" font-family="'Geist Mono', ui-monospace, SFMono-Regular, Menlo, Consolas, monospace" font-size="11" fill="#ababab">1.4</text><text x="316" y="358" font-family="Geist, 'Geist Sans', Inter, system-ui, -apple-system, 'Segoe UI', sans-serif" font-size="13" fill="#fafafa">Draft design-system.md</text><g class="loopmark" transform="translate(482.5 344.5) scale(0.625)" fill="none" stroke="#e89960" stroke-width="2" stroke-linecap="round" stroke-linejoin="round"><path d="M21 12a9 9 0 1 1-9-9c2.52 0 4.93 1 6.74 2.74L21 8"/><path d="M21 3v5h-5"/></g></g><path d="M100 386 L100 414" fill="none" stroke="#fafafa" stroke-width="1.6" marker-end="url(#arr-fafafa)" stroke-linejoin="round"/><g class="stage-g" data-stage="decomposition"><rect x="40" y="414" width="976" height="205" rx="10" fill="#0a0a0a" stroke="#333333" stroke-width="1" class="stage"/><text x="54" y="458" font-family="Fraunces, 'Iowan Old Style', Georgia, serif" font-size="30" fill="#d7aa42">2</text><text x="84" y="444" font-family="Geist, 'Geist Sans', Inter, system-ui, -apple-system, 'Segoe UI', sans-serif" font-size="14.5" font-weight="600" fill="#fafafa">Decompose into specs</text><rect x="84" y="467" width="42.5" height="16" rx="8" fill="#e89960" stroke="#e89960" stroke-width="1"/><text x="105.25" y="478.5" font-family="'Geist Mono', ui-monospace, SFMono-Regular, Menlo, Consolas, monospace" font-size="9.5" fill="#0a0a0a" text-anchor="middle" letter-spacing="0.06em">HUMAN</text><rect x="276" y="428" width="232" height="50" rx="6" fill="#271e0a" stroke="#d7aa42" stroke-width="1" class="chip"/><rect x="276" y="428" width="3" height="50" rx="0" fill="#d7aa42"/><text x="288" y="448" font-family="'Geist Mono', ui-monospace, SFMono-Regular, Menlo, Consolas, monospace" font-size="11" fill="#ababab">2.1</text><text x="316" y="448" font-family="Geist, 'Geist Sans', Inter, system-ui, -apple-system, 'Segoe UI', sans-serif" font-size="13" fill="#fafafa">Read every steering</text><text x="316" y="464" font-family="Geist, 'Geist Sans', Inter, system-ui, -apple-system, 'Segoe UI', sans-serif" font-size="13" fill="#fafafa">document</text><rect x="518" y="428" width="232" height="50" rx="6" fill="#271e0a" stroke="#d7aa42" stroke-width="1" class="chip"/><rect x="518" y="428" width="3" height="50" rx="0" fill="#d7aa42"/><text x="530" y="448" font-family="'Geist Mono', ui-monospace, SFMono-Regular, Menlo, Consolas, monospace" font-size="11" fill="#ababab">2.2</text><text x="558" y="448" font-family="Geist, 'Geist Sans', Inter, system-ui, -apple-system, 'Segoe UI', sans-serif" font-size="13" fill="#fafafa">Account for existing</text><text x="558" y="464" font-family="Geist, 'Geist Sans', Inter, system-ui, -apple-system, 'Segoe UI', sans-serif" font-size="13" fill="#fafafa">code</text><g class="humanmark" transform="translate(724.5 434.5) scale(0.625)" fill="none" stroke="#e89960" stroke-width="2" stroke-linecap="round" stroke-linejoin="round"><path d="M19 21v-2a4 4 0 0 0-4-4H9a4 4 0 0 0-4 4v2"/><circle cx="12" cy="7" r="4"/></g><rect x="760" y="428" width="232" height="50" rx="6" fill="#271e0a" stroke="#d7aa42" stroke-width="1" class="chip"/><rect x="760" y="428" width="3" height="50" rx="0" fill="#d7aa42"/><text x="772" y="448" font-family="'Geist Mono', ui-monospace, SFMono-Regular, Menlo, Consolas, monospace" font-size="11" fill="#ababab">2.3</text><text x="800" y="448" font-family="Geist, 'Geist Sans', Inter, system-ui, -apple-system, 'Segoe UI', sans-serif" font-size="13" fill="#fafafa">Group capabilities into</text><text x="800" y="464" font-family="Geist, 'Geist Sans', Inter, system-ui, -apple-system, 'Segoe UI', sans-serif" font-size="13" fill="#fafafa">specs</text><rect x="276" y="497" width="232" height="50" rx="6" fill="#271e0a" stroke="#d7aa42" stroke-width="1" class="chip"/><rect x="276" y="497" width="3" height="50" rx="0" fill="#d7aa42"/><text x="288" y="517" font-family="'Geist Mono', ui-monospace, SFMono-Regular, Menlo, Consolas, monospace" font-size="11" fill="#ababab">2.4</text><text x="316" y="517" font-family="Geist, 'Geist Sans', Inter, system-ui, -apple-system, 'Segoe UI', sans-serif" font-size="13" fill="#fafafa">Order specs by</text><text x="316" y="533" font-family="Geist, 'Geist Sans', Inter, system-ui, -apple-system, 'Segoe UI', sans-serif" font-size="13" fill="#fafafa">dependency</text><rect x="518" y="497" width="232" height="50" rx="6" fill="#271e0a" stroke="#d7aa42" stroke-width="1" class="chip"/><rect x="518" y="497" width="3" height="50" rx="0" fill="#d7aa42"/><text x="530" y="517" font-family="'Geist Mono', ui-monospace, SFMono-Regular, Menlo, Consolas, monospace" font-size="11" fill="#ababab">2.5</text><text x="558" y="517" font-family="Geist, 'Geist Sans', Inter, system-ui, -apple-system, 'Segoe UI', sans-serif" font-size="13" fill="#fafafa">Answer the open</text><text x="558" y="533" font-family="Geist, 'Geist Sans', Inter, system-ui, -apple-system, 'Segoe UI', sans-serif" font-size="13" fill="#fafafa">questions</text><g class="humanmark" transform="translate(724.5 503.5) scale(0.625)" fill="none" stroke="#e89960" stroke-width="2" stroke-linecap="round" stroke-linejoin="round"><path d="M19 21v-2a4 4 0 0 0-4-4H9a4 4 0 0 0-4 4v2"/><circle cx="12" cy="7" r="4"/></g><rect x="760" y="497" width="232" height="50" rx="6" fill="#271e0a" stroke="#d7aa42" stroke-width="1" class="chip"/><rect x="760" y="497" width="3" height="50" rx="0" fill="#d7aa42"/><text x="772" y="517" font-family="'Geist Mono', ui-monospace, SFMono-Regular, Menlo, Consolas, monospace" font-size="11" fill="#ababab">2.6</text><text x="800" y="517" font-family="Geist, 'Geist Sans', Inter, system-ui, -apple-system, 'Segoe UI', sans-serif" font-size="13" fill="#fafafa">Approve</text><text x="800" y="533" font-family="Geist, 'Geist Sans', Inter, system-ui, -apple-system, 'Segoe UI', sans-serif" font-size="13" fill="#fafafa">decomposition.md</text><g class="loopmark" transform="translate(966.5 503.5) scale(0.625)" fill="none" stroke="#d7aa42" stroke-width="2" stroke-linecap="round" stroke-linejoin="round"><path d="M21 12a9 9 0 1 1-9-9c2.52 0 4.93 1 6.74 2.74L21 8"/><path d="M21 3v5h-5"/></g><rect x="276" y="555" width="232" height="50" rx="6" fill="#271e0a" stroke="#d7aa42" stroke-width="1" class="chip"/><rect x="276" y="555" width="3" height="50" rx="0" fill="#d7aa42"/><text x="288" y="575" font-family="'Geist Mono', ui-monospace, SFMono-Regular, Menlo, Consolas, monospace" font-size="11" fill="#ababab">2.7</text><text x="316" y="575" font-family="Geist, 'Geist Sans', Inter, system-ui, -apple-system, 'Segoe UI', sans-serif" font-size="13" fill="#fafafa">Generate the INDEX</text><text x="316" y="591" font-family="Geist, 'Geist Sans', Inter, system-ui, -apple-system, 'Segoe UI', sans-serif" font-size="13" fill="#fafafa">roadmap</text></g><path d="M100 619 L100 681" fill="none" stroke="#fafafa" stroke-width="1.6" marker-end="url(#arr-fafafa)" stroke-linejoin="round"/><g class="stage-g" data-stage="requirements"><rect x="40" y="681" width="976" height="89" rx="10" fill="#0a0a0a" stroke="#333333" stroke-width="1" class="stage"/><text x="54" y="725" font-family="Fraunces, 'Iowan Old Style', Georgia, serif" font-size="30" fill="#52b5f4">3</text><text x="84" y="711" font-family="Geist, 'Geist Sans', Inter, system-ui, -apple-system, 'Segoe UI', sans-serif" font-size="14.5" font-weight="600" fill="#fafafa">Requirements</text><rect x="84" y="734" width="76.69999999999999" height="16" rx="8" fill="#262626" stroke="#333333" stroke-width="1"/><text x="122.35" y="745.5" font-family="'Geist Mono', ui-monospace, SFMono-Regular, Menlo, Consolas, monospace" font-size="9.5" fill="#ababab" text-anchor="middle" letter-spacing="0.06em">MANUAL GATE</text><rect x="276" y="695" width="232" height="34" rx="6" fill="#0e212e" stroke="#52b5f4" stroke-width="1" class="chip"/><rect x="276" y="695" width="3" height="34" rx="0" fill="#52b5f4"/><text x="288" y="715" font-family="'Geist Mono', ui-monospace, SFMono-Regular, Menlo, Consolas, monospace" font-size="11" fill="#ababab">3.1</text><text x="316" y="715" font-family="Geist, 'Geist Sans', Inter, system-ui, -apple-system, 'Segoe UI', sans-serif" font-size="13" fill="#fafafa">Draft v1</text><rect x="518" y="695" width="232" height="34" rx="6" fill="#0e212e" stroke="#52b5f4" stroke-width="1" class="chip"/><rect x="518" y="695" width="3" height="34" rx="0" fill="#52b5f4"/><text x="530" y="715" font-family="'Geist Mono', ui-monospace, SFMono-Regular, Menlo, Consolas, monospace" font-size="11" fill="#ababab">3.2</text><text x="558" y="715" font-family="Geist, 'Geist Sans', Inter, system-ui, -apple-system, 'Segoe UI', sans-serif" font-size="13" fill="#fafafa">Converge by review</text><g class="loopmark" transform="translate(724.5 701.5) scale(0.625)" fill="none" stroke="#52b5f4" stroke-width="2" stroke-linecap="round" stroke-linejoin="round"><path d="M21 12a9 9 0 1 1-9-9c2.52 0 4.93 1 6.74 2.74L21 8"/><path d="M21 3v5h-5"/></g><rect x="760" y="695" width="232" height="34" rx="6" fill="#0e212e" stroke="#52b5f4" stroke-width="1" class="chip"/><rect x="760" y="695" width="3" height="34" rx="0" fill="#52b5f4"/><text x="772" y="715" font-family="'Geist Mono', ui-monospace, SFMono-Regular, Menlo, Consolas, monospace" font-size="11" fill="#ababab">3.3</text><text x="800" y="715" font-family="Geist, 'Geist Sans', Inter, system-ui, -apple-system, 'Segoe UI', sans-serif" font-size="13" fill="#fafafa">Approve, prune, commit</text></g><path d="M100 770 L100 798" fill="none" stroke="#fafafa" stroke-width="1.6" marker-end="url(#arr-fafafa)" stroke-linejoin="round"/><g class="stage-g" data-stage="design"><rect x="40" y="798" width="976" height="89" rx="10" fill="#0a0a0a" stroke="#333333" stroke-width="1" class="stage"/><text x="54" y="842" font-family="Fraunces, 'Iowan Old Style', Georgia, serif" font-size="30" fill="#52b5f4">4</text><text x="84" y="828" font-family="Geist, 'Geist Sans', Inter, system-ui, -apple-system, 'Segoe UI', sans-serif" font-size="14.5" font-weight="600" fill="#fafafa">Design</text><rect x="84" y="851" width="76.69999999999999" height="16" rx="8" fill="#262626" stroke="#333333" stroke-width="1"/><text x="122.35" y="862.5" font-family="'Geist Mono', ui-monospace, SFMono-Regular, Menlo, Consolas, monospace" font-size="9.5" fill="#ababab" text-anchor="middle" letter-spacing="0.06em">MANUAL GATE</text><rect x="276" y="812" width="232" height="34" rx="6" fill="#0e212e" stroke="#52b5f4" stroke-width="1" class="chip"/><rect x="276" y="812" width="3" height="34" rx="0" fill="#52b5f4"/><text x="288" y="832" font-family="'Geist Mono', ui-monospace, SFMono-Regular, Menlo, Consolas, monospace" font-size="11" fill="#ababab">4.1</text><text x="316" y="832" font-family="Geist, 'Geist Sans', Inter, system-ui, -apple-system, 'Segoe UI', sans-serif" font-size="13" fill="#fafafa">Draft v1</text><rect x="518" y="812" width="232" height="34" rx="6" fill="#0e212e" stroke="#52b5f4" stroke-width="1" class="chip"/><rect x="518" y="812" width="3" height="34" rx="0" fill="#52b5f4"/><text x="530" y="832" font-family="'Geist Mono', ui-monospace, SFMono-Regular, Menlo, Consolas, monospace" font-size="11" fill="#ababab">4.2</text><text x="558" y="832" font-family="Geist, 'Geist Sans', Inter, system-ui, -apple-system, 'Segoe UI', sans-serif" font-size="13" fill="#fafafa">Converge by review</text><g class="loopmark" transform="translate(724.5 818.5) scale(0.625)" fill="none" stroke="#52b5f4" stroke-width="2" stroke-linecap="round" stroke-linejoin="round"><path d="M21 12a9 9 0 1 1-9-9c2.52 0 4.93 1 6.74 2.74L21 8"/><path d="M21 3v5h-5"/></g><rect x="760" y="812" width="232" height="34" rx="6" fill="#0e212e" stroke="#52b5f4" stroke-width="1" class="chip"/><rect x="760" y="812" width="3" height="34" rx="0" fill="#52b5f4"/><text x="772" y="832" font-family="'Geist Mono', ui-monospace, SFMono-Regular, Menlo, Consolas, monospace" font-size="11" fill="#ababab">4.3</text><text x="800" y="832" font-family="Geist, 'Geist Sans', Inter, system-ui, -apple-system, 'Segoe UI', sans-serif" font-size="13" fill="#fafafa">Approve, prune, commit</text></g><path d="M100 887 L100 915" fill="none" stroke="#fafafa" stroke-width="1.6" marker-end="url(#arr-fafafa)" stroke-linejoin="round"/><g class="stage-g" data-stage="tasks"><rect x="40" y="915" width="976" height="89" rx="10" fill="#0a0a0a" stroke="#333333" stroke-width="1" class="stage"/><text x="54" y="959" font-family="Fraunces, 'Iowan Old Style', Georgia, serif" font-size="30" fill="#52b5f4">5</text><text x="84" y="945" font-family="Geist, 'Geist Sans', Inter, system-ui, -apple-system, 'Segoe UI', sans-serif" font-size="14.5" font-weight="600" fill="#fafafa">Tasks</text><rect x="84" y="968" width="76.69999999999999" height="16" rx="8" fill="#262626" stroke="#333333" stroke-width="1"/><text x="122.35" y="979.5" font-family="'Geist Mono', ui-monospace, SFMono-Regular, Menlo, Consolas, monospace" font-size="9.5" fill="#ababab" text-anchor="middle" letter-spacing="0.06em">MANUAL GATE</text><rect x="276" y="929" width="232" height="34" rx="6" fill="#0e212e" stroke="#52b5f4" stroke-width="1" class="chip"/><rect x="276" y="929" width="3" height="34" rx="0" fill="#52b5f4"/><text x="288" y="949" font-family="'Geist Mono', ui-monospace, SFMono-Regular, Menlo, Consolas, monospace" font-size="11" fill="#ababab">5.1</text><text x="316" y="949" font-family="Geist, 'Geist Sans', Inter, system-ui, -apple-system, 'Segoe UI', sans-serif" font-size="13" fill="#fafafa">Draft v1</text><rect x="518" y="929" width="232" height="34" rx="6" fill="#0e212e" stroke="#52b5f4" stroke-width="1" class="chip"/><rect x="518" y="929" width="3" height="34" rx="0" fill="#52b5f4"/><text x="530" y="949" font-family="'Geist Mono', ui-monospace, SFMono-Regular, Menlo, Consolas, monospace" font-size="11" fill="#ababab">5.2</text><text x="558" y="949" font-family="Geist, 'Geist Sans', Inter, system-ui, -apple-system, 'Segoe UI', sans-serif" font-size="13" fill="#fafafa">Converge by review</text><g class="loopmark" transform="translate(724.5 935.5) scale(0.625)" fill="none" stroke="#52b5f4" stroke-width="2" stroke-linecap="round" stroke-linejoin="round"><path d="M21 12a9 9 0 1 1-9-9c2.52 0 4.93 1 6.74 2.74L21 8"/><path d="M21 3v5h-5"/></g><rect x="760" y="929" width="232" height="34" rx="6" fill="#0e212e" stroke="#52b5f4" stroke-width="1" class="chip"/><rect x="760" y="929" width="3" height="34" rx="0" fill="#52b5f4"/><text x="772" y="949" font-family="'Geist Mono', ui-monospace, SFMono-Regular, Menlo, Consolas, monospace" font-size="11" fill="#ababab">5.3</text><text x="800" y="949" font-family="Geist, 'Geist Sans', Inter, system-ui, -apple-system, 'Segoe UI', sans-serif" font-size="13" fill="#fafafa">Approve, prune, commit</text></g><path d="M100 1004 L100 1032" fill="none" stroke="#fafafa" stroke-width="1.6" marker-end="url(#arr-fafafa)" stroke-linejoin="round"/><g class="stage-g" data-stage="implementation"><rect x="40" y="1032" width="976" height="131" rx="10" fill="#0a0a0a" stroke="#333333" stroke-width="1" class="stage"/><text x="54" y="1076" font-family="Fraunces, 'Iowan Old Style', Georgia, serif" font-size="30" fill="#5ac576">6</text><text x="84" y="1062" font-family="Geist, 'Geist Sans', Inter, system-ui, -apple-system, 'Segoe UI', sans-serif" font-size="14.5" font-weight="600" fill="#fafafa">Implementation</text><rect x="84" y="1085" width="48.199999999999996" height="16" rx="8" fill="none" stroke="#333333" stroke-width="1"/><text x="108.1" y="1096.5" font-family="'Geist Mono', ui-monospace, SFMono-Regular, Menlo, Consolas, monospace" font-size="9.5" fill="#ababab" text-anchor="middle" letter-spacing="0.06em">AGENTS</text><rect x="276" y="1046" width="232" height="34" rx="6" fill="#132416" stroke="#5ac576" stroke-width="1" class="chip"/><rect x="276" y="1046" width="3" height="34" rx="0" fill="#5ac576"/><text x="288" y="1066" font-family="'Geist Mono', ui-monospace, SFMono-Regular, Menlo, Consolas, monospace" font-size="11" fill="#ababab">6.1</text><text x="316" y="1066" font-family="Geist, 'Geist Sans', Inter, system-ui, -apple-system, 'Segoe UI', sans-serif" font-size="13" fill="#fafafa">Implement each task</text><rect x="518" y="1046" width="232" height="34" rx="6" fill="#132416" stroke="#5ac576" stroke-width="1" class="chip"/><rect x="518" y="1046" width="3" height="34" rx="0" fill="#5ac576"/><text x="530" y="1066" font-family="'Geist Mono', ui-monospace, SFMono-Regular, Menlo, Consolas, monospace" font-size="11" fill="#ababab">6.2</text><text x="558" y="1066" font-family="Geist, 'Geist Sans', Inter, system-ui, -apple-system, 'Segoe UI', sans-serif" font-size="13" fill="#fafafa">Verify each task</text><g class="loopmark" transform="translate(724.5 1052.5) scale(0.625)" fill="none" stroke="#5ac576" stroke-width="2" stroke-linecap="round" stroke-linejoin="round"><path d="M21 12a9 9 0 1 1-9-9c2.52 0 4.93 1 6.74 2.74L21 8"/><path d="M21 3v5h-5"/></g><rect x="760" y="1046" width="232" height="34" rx="6" fill="#132416" stroke="#5ac576" stroke-width="1" class="chip"/><rect x="760" y="1046" width="3" height="34" rx="0" fill="#5ac576"/><text x="772" y="1066" font-family="'Geist Mono', ui-monospace, SFMono-Regular, Menlo, Consolas, monospace" font-size="11" fill="#ababab">6.3</text><text x="800" y="1066" font-family="Geist, 'Geist Sans', Inter, system-ui, -apple-system, 'Segoe UI', sans-serif" font-size="13" fill="#fafafa">Verify end to end</text><rect x="276" y="1115" width="232" height="34" rx="6" fill="#132416" stroke="#5ac576" stroke-width="1" class="chip"/><rect x="276" y="1115" width="3" height="34" rx="0" fill="#5ac576"/><text x="288" y="1135" font-family="'Geist Mono', ui-monospace, SFMono-Regular, Menlo, Consolas, monospace" font-size="11" fill="#ababab">6.4</text><text x="316" y="1135" font-family="Geist, 'Geist Sans', Inter, system-ui, -apple-system, 'Segoe UI', sans-serif" font-size="13" fill="#fafafa">Open the PR</text><rect x="518" y="1115" width="232" height="34" rx="6" fill="#132416" stroke="#5ac576" stroke-width="1" class="chip"/><rect x="518" y="1115" width="3" height="34" rx="0" fill="#5ac576"/><text x="530" y="1135" font-family="'Geist Mono', ui-monospace, SFMono-Regular, Menlo, Consolas, monospace" font-size="11" fill="#ababab">6.5</text><text x="558" y="1135" font-family="Geist, 'Geist Sans', Inter, system-ui, -apple-system, 'Segoe UI', sans-serif" font-size="13" fill="#fafafa">Wait for green checks</text><g class="loopmark" transform="translate(724.5 1121.5) scale(0.625)" fill="none" stroke="#5ac576" stroke-width="2" stroke-linecap="round" stroke-linejoin="round"><path d="M21 12a9 9 0 1 1-9-9c2.52 0 4.93 1 6.74 2.74L21 8"/><path d="M21 3v5h-5"/></g></g><path d="M100 1163 L100 1191" fill="none" stroke="#fafafa" stroke-width="1.6" marker-end="url(#arr-fafafa)" stroke-linejoin="round"/><g class="stage-g" data-stage="retrospective"><rect x="40" y="1191" width="976" height="131" rx="10" fill="#0a0a0a" stroke="#333333" stroke-width="1" class="stage"/><text x="54" y="1235" font-family="Fraunces, 'Iowan Old Style', Georgia, serif" font-size="30" fill="#b699eb">7</text><text x="84" y="1221" font-family="Geist, 'Geist Sans', Inter, system-ui, -apple-system, 'Segoe UI', sans-serif" font-size="14.5" font-weight="600" fill="#fafafa">Retrospective</text><rect x="84" y="1244" width="42.5" height="16" rx="8" fill="#e89960" stroke="#e89960" stroke-width="1"/><text x="105.25" y="1255.5" font-family="'Geist Mono', ui-monospace, SFMono-Regular, Menlo, Consolas, monospace" font-size="9.5" fill="#0a0a0a" text-anchor="middle" letter-spacing="0.06em">HUMAN</text><rect x="276" y="1205" width="232" height="34" rx="6" fill="#221b2d" stroke="#b699eb" stroke-width="1" class="chip"/><rect x="276" y="1205" width="3" height="34" rx="0" fill="#b699eb"/><text x="288" y="1225" font-family="'Geist Mono', ui-monospace, SFMono-Regular, Menlo, Consolas, monospace" font-size="11" fill="#ababab">7.1</text><text x="316" y="1225" font-family="Geist, 'Geist Sans', Inter, system-ui, -apple-system, 'Segoe UI', sans-serif" font-size="13" fill="#fafafa">Compile the findings</text><rect x="518" y="1205" width="232" height="34" rx="6" fill="#221b2d" stroke="#b699eb" stroke-width="1" class="chip"/><rect x="518" y="1205" width="3" height="34" rx="0" fill="#b699eb"/><text x="530" y="1225" font-family="'Geist Mono', ui-monospace, SFMono-Regular, Menlo, Consolas, monospace" font-size="11" fill="#ababab">7.2</text><text x="558" y="1225" font-family="Geist, 'Geist Sans', Inter, system-ui, -apple-system, 'Segoe UI', sans-serif" font-size="13" fill="#fafafa">Write the proposals</text><rect x="760" y="1205" width="232" height="34" rx="6" fill="#221b2d" stroke="#b699eb" stroke-width="1" class="chip"/><rect x="760" y="1205" width="3" height="34" rx="0" fill="#b699eb"/><text x="772" y="1225" font-family="'Geist Mono', ui-monospace, SFMono-Regular, Menlo, Consolas, monospace" font-size="11" fill="#ababab">7.3</text><text x="800" y="1225" font-family="Geist, 'Geist Sans', Inter, system-ui, -apple-system, 'Segoe UI', sans-serif" font-size="13" fill="#fafafa">Decide what to approve</text><g class="humanmark" transform="translate(966.5 1211.5) scale(0.625)" fill="none" stroke="#e89960" stroke-width="2" stroke-linecap="round" stroke-linejoin="round"><path d="M19 21v-2a4 4 0 0 0-4-4H9a4 4 0 0 0-4 4v2"/><circle cx="12" cy="7" r="4"/></g><rect x="276" y="1274" width="232" height="34" rx="6" fill="#221b2d" stroke="#b699eb" stroke-width="1" class="chip"/><rect x="276" y="1274" width="3" height="34" rx="0" fill="#b699eb"/><text x="288" y="1294" font-family="'Geist Mono', ui-monospace, SFMono-Regular, Menlo, Consolas, monospace" font-size="11" fill="#ababab">7.4</text><text x="316" y="1294" font-family="Geist, 'Geist Sans', Inter, system-ui, -apple-system, 'Segoe UI', sans-serif" font-size="13" fill="#fafafa">Write the plan</text></g><path d="M100 1322 L100 1350" fill="none" stroke="#fafafa" stroke-width="1.6" marker-end="url(#arr-fafafa)" stroke-linejoin="round"/><g class="stage-g" data-stage="closeout"><rect x="40" y="1350" width="976" height="131" rx="10" fill="#0a0a0a" stroke="#333333" stroke-width="1" class="stage"/><text x="54" y="1394" font-family="Fraunces, 'Iowan Old Style', Georgia, serif" font-size="30" fill="#b699eb">8</text><text x="84" y="1380" font-family="Geist, 'Geist Sans', Inter, system-ui, -apple-system, 'Segoe UI', sans-serif" font-size="14.5" font-weight="600" fill="#fafafa">Close-out</text><rect x="84" y="1403" width="48.199999999999996" height="16" rx="8" fill="none" stroke="#333333" stroke-width="1"/><text x="108.1" y="1414.5" font-family="'Geist Mono', ui-monospace, SFMono-Regular, Menlo, Consolas, monospace" font-size="9.5" fill="#ababab" text-anchor="middle" letter-spacing="0.06em">AGENTS</text><rect x="276" y="1364" width="232" height="34" rx="6" fill="#221b2d" stroke="#b699eb" stroke-width="1" class="chip"/><rect x="276" y="1364" width="3" height="34" rx="0" fill="#b699eb"/><text x="288" y="1384" font-family="'Geist Mono', ui-monospace, SFMono-Regular, Menlo, Consolas, monospace" font-size="11" fill="#ababab">8.1</text><text x="316" y="1384" font-family="Geist, 'Geist Sans', Inter, system-ui, -apple-system, 'Segoe UI', sans-serif" font-size="13" fill="#fafafa">Land each proposal</text><rect x="518" y="1364" width="232" height="34" rx="6" fill="#221b2d" stroke="#b699eb" stroke-width="1" class="chip"/><rect x="518" y="1364" width="3" height="34" rx="0" fill="#b699eb"/><text x="530" y="1384" font-family="'Geist Mono', ui-monospace, SFMono-Regular, Menlo, Consolas, monospace" font-size="11" fill="#ababab">8.2</text><text x="558" y="1384" font-family="Geist, 'Geist Sans', Inter, system-ui, -apple-system, 'Segoe UI', sans-serif" font-size="13" fill="#fafafa">Verify each item</text><g class="loopmark" transform="translate(724.5 1370.5) scale(0.625)" fill="none" stroke="#b699eb" stroke-width="2" stroke-linecap="round" stroke-linejoin="round"><path d="M21 12a9 9 0 1 1-9-9c2.52 0 4.93 1 6.74 2.74L21 8"/><path d="M21 3v5h-5"/></g><rect x="760" y="1364" width="232" height="34" rx="6" fill="#221b2d" stroke="#b699eb" stroke-width="1" class="chip"/><rect x="760" y="1364" width="3" height="34" rx="0" fill="#b699eb"/><text x="772" y="1384" font-family="'Geist Mono', ui-monospace, SFMono-Regular, Menlo, Consolas, monospace" font-size="11" fill="#ababab">8.3</text><text x="800" y="1384" font-family="Geist, 'Geist Sans', Inter, system-ui, -apple-system, 'Segoe UI', sans-serif" font-size="13" fill="#fafafa">Open the follow-up PRs</text><rect x="276" y="1433" width="232" height="34" rx="6" fill="#221b2d" stroke="#b699eb" stroke-width="1" class="chip"/><rect x="276" y="1433" width="3" height="34" rx="0" fill="#b699eb"/><text x="288" y="1453" font-family="'Geist Mono', ui-monospace, SFMono-Regular, Menlo, Consolas, monospace" font-size="11" fill="#ababab">8.4</text><text x="316" y="1453" font-family="Geist, 'Geist Sans', Inter, system-ui, -apple-system, 'Segoe UI', sans-serif" font-size="13" fill="#fafafa">Mark the plan CLOSED</text></g><path d="M1016 1415.5 L1046 1415.5 L1046 725.5 L1016 725.5" fill="none" stroke="#b699eb" stroke-width="1.6" stroke-dasharray="6 4" marker-end="url(#arr-b699eb)" stroke-linejoin="round"/><rect x="1050" y="1045.5" width="67.4" height="14" rx="3" fill="#0a0a0a"/><text x="1054" y="1055.5" font-family="'Geist Mono', ui-monospace, SFMono-Regular, Menlo, Consolas, monospace" font-size="11" fill="#b699eb" text-anchor="start">next spec</text><text x="40" y="1529" font-family="'Geist Mono', ui-monospace, SFMono-Regular, Menlo, Consolas, monospace" font-size="11" fill="#e89960">/</text><text x="52" y="1529" font-family="'Geist Mono', ui-monospace, SFMono-Regular, Menlo, Consolas, monospace" font-size="11" fill="#e89960" letter-spacing="0.08em">THE REVIEW LOOP</text><rect x="40" y="1543" width="196" height="34" rx="6" fill="#0e212e" stroke="#52b5f4" stroke-width="1" class="chip"/><rect x="40" y="1543" width="3" height="34" rx="0" fill="#52b5f4"/><text x="52" y="1563" font-family="Geist, 'Geist Sans', Inter, system-ui, -apple-system, 'Segoe UI', sans-serif" font-size="13" fill="#fafafa">Draft</text><path d="M236 1561 L280 1561" fill="none" stroke="#fafafa" stroke-width="1.5" marker-end="url(#arr-fafafa)" stroke-linejoin="round"/><rect x="280" y="1543" width="196" height="34" rx="6" fill="#0e212e" stroke="#52b5f4" stroke-width="1" class="chip"/><rect x="280" y="1543" width="3" height="34" rx="0" fill="#52b5f4"/><text x="292" y="1563" font-family="Geist, 'Geist Sans', Inter, system-ui, -apple-system, 'Segoe UI', sans-serif" font-size="13" fill="#fafafa">Adversarial review</text><path d="M476 1561 L520 1561" fill="none" stroke="#fafafa" stroke-width="1.5" marker-end="url(#arr-fafafa)" stroke-linejoin="round"/><rect x="520" y="1543" width="196" height="34" rx="6" fill="#0e212e" stroke="#52b5f4" stroke-width="1" class="chip"/><rect x="520" y="1543" width="3" height="34" rx="0" fill="#52b5f4"/><text x="532" y="1563" font-family="Geist, 'Geist Sans', Inter, system-ui, -apple-system, 'Segoe UI', sans-serif" font-size="13" fill="#fafafa">Revise</text><path d="M716 1561 L760 1561" fill="none" stroke="#fafafa" stroke-width="1.5" marker-end="url(#arr-fafafa)" stroke-linejoin="round"/><rect x="760" y="1543" width="196" height="34" rx="6" fill="#0e212e" stroke="#52b5f4" stroke-width="1" class="chip"/><rect x="760" y="1543" width="3" height="34" rx="0" fill="#52b5f4"/><text x="772" y="1563" font-family="Geist, 'Geist Sans', Inter, system-ui, -apple-system, 'Segoe UI', sans-serif" font-size="13" fill="#fafafa">Approve</text><path d="M618 1577 L618 1599 L378 1599 L378 1577" fill="none" stroke="#52b5f4" stroke-width="1.5" marker-end="url(#arr-52b5f4)" stroke-linejoin="round"/><rect x="470.9" y="1583" width="54.199999999999996" height="14" rx="3" fill="#0a0a0a"/><text x="498" y="1593" font-family="'Geist Mono', ui-monospace, SFMono-Regular, Menlo, Consolas, monospace" font-size="11" fill="#52b5f4" text-anchor="middle">iterate</text><path d="M408 1543 L408 1531 L858 1531 L858 1543" fill="none" stroke="#52b5f4" stroke-width="1.5" marker-end="url(#arr-52b5f4)" stroke-linejoin="round"/><rect x="599.3" y="1515" width="67.4" height="14" rx="3" fill="#0a0a0a"/><text x="633" y="1525" font-family="'Geist Mono', ui-monospace, SFMono-Regular, Menlo, Consolas, monospace" font-size="11" fill="#52b5f4" text-anchor="middle">converged</text><text x="40" y="1621" font-family="Geist, 'Geist Sans', Inter, system-ui, -apple-system, 'Segoe UI', sans-serif" font-size="11.5" fill="#ababab">Every step marked with the loop mark runs this until the reviewer says converged.</text><g class="loopmark" transform="translate(38.5 1645.5) scale(0.625)" fill="none" stroke="#fafafa" stroke-width="2" stroke-linecap="round" stroke-linejoin="round"><path d="M21 12a9 9 0 1 1-9-9c2.52 0 4.93 1 6.74 2.74L21 8"/><path d="M21 3v5h-5"/></g><text x="58" y="1657" font-family="Geist, 'Geist Sans', Inter, system-ui, -apple-system, 'Segoe UI', sans-serif" font-size="11.5" fill="#ababab">runs the review loop</text><g class="humanmark" transform="translate(206.7 1645.5) scale(0.625)" fill="none" stroke="#e89960" stroke-width="2" stroke-linecap="round" stroke-linejoin="round"><path d="M19 21v-2a4 4 0 0 0-4-4H9a4 4 0 0 0-4 4v2"/><circle cx="12" cy="7" r="4"/></g><text x="226.2" y="1657" font-family="Geist, 'Geist Sans', Inter, system-ui, -apple-system, 'Segoe UI', sans-serif" font-size="11.5" fill="#ababab">a person decides</text><rect x="351.56" y="1647" width="12" height="12" rx="3" fill="none" stroke="#ababab" stroke-width="1" stroke-dasharray="3 2"/><text x="369.56" y="1657" font-family="Geist, 'Geist Sans', Inter, system-ui, -apple-system, 'Segoe UI', sans-serif" font-size="11.5" fill="#ababab">optional</text><rect x="40" y="1671" width="42.5" height="16" rx="8" fill="#e89960" stroke="#e89960" stroke-width="1"/><text x="61.25" y="1682.5" font-family="'Geist Mono', ui-monospace, SFMono-Regular, Menlo, Consolas, monospace" font-size="9.5" fill="#0a0a0a" text-anchor="middle" letter-spacing="0.06em">HUMAN</text><text x="88.5" y="1683" font-family="Geist, 'Geist Sans', Inter, system-ui, -apple-system, 'Segoe UI', sans-serif" font-size="11.5" fill="#ababab">Human decides</text><rect x="191.23000000000002" y="1671" width="76.69999999999999" height="16" rx="8" fill="#262626" stroke="#333333" stroke-width="1"/><text x="229.58" y="1682.5" font-family="'Geist Mono', ui-monospace, SFMono-Regular, Menlo, Consolas, monospace" font-size="9.5" fill="#ababab" text-anchor="middle" letter-spacing="0.06em">MANUAL GATE</text><text x="273.93" y="1683" font-family="Geist, 'Geist Sans', Inter, system-ui, -apple-system, 'Segoe UI', sans-serif" font-size="11.5" fill="#ababab">Human approves in manual mode, harness self-approves</text><rect x="618.85" y="1671" width="48.199999999999996" height="16" rx="8" fill="none" stroke="#333333" stroke-width="1"/><text x="642.95" y="1682.5" font-family="'Geist Mono', ui-monospace, SFMono-Regular, Menlo, Consolas, monospace" font-size="9.5" fill="#ababab" text-anchor="middle" letter-spacing="0.06em">AGENTS</text><text x="673.0500000000001" y="1683" font-family="Geist, 'Geist Sans', Inter, system-ui, -apple-system, 'Segoe UI', sans-serif" font-size="11.5" fill="#ababab">Agents only</text></svg>