<svg xmlns="http://www.w3.org/2000/svg" viewBox="0 0 1140 604" width="1140" height="604" role="img" aria-labelledby="t d" font-family="Geist, 'Geist Sans', Inter, system-ui, -apple-system, 'Segoe UI', sans-serif">
<title id="t">Steering into specs</title><desc id="d">Four documents describe the product. The decomposition turns them into an ordered queue.</desc>
<defs><marker id="arr-fafafa" viewBox="0 0 10 10" refX="9" refY="5" markerWidth="7" markerHeight="7" orient="auto-start-reverse"><path d="M0 0.5 L10 5 L0 9.5 z" fill="#fafafa"/></marker><marker id="arr-ababab" viewBox="0 0 10 10" refX="9" refY="5" markerWidth="7" markerHeight="7" orient="auto-start-reverse"><path d="M0 0.5 L10 5 L0 9.5 z" fill="#ababab"/></marker><marker id="arr-e89960" viewBox="0 0 10 10" refX="9" refY="5" markerWidth="7" markerHeight="7" orient="auto-start-reverse"><path d="M0 0.5 L10 5 L0 9.5 z" fill="#e89960"/></marker><marker id="arr-d7aa42" viewBox="0 0 10 10" refX="9" refY="5" markerWidth="7" markerHeight="7" orient="auto-start-reverse"><path d="M0 0.5 L10 5 L0 9.5 z" fill="#d7aa42"/></marker><marker id="arr-52b5f4" viewBox="0 0 10 10" refX="9" refY="5" markerWidth="7" markerHeight="7" orient="auto-start-reverse"><path d="M0 0.5 L10 5 L0 9.5 z" fill="#52b5f4"/></marker></defs>
<rect x="0" y="0" width="1140" height="604" rx="0" fill="#0a0a0a"/><text x="40" y="44" font-family="'Geist Mono', ui-monospace, SFMono-Regular, Menlo, Consolas, monospace" font-size="11" fill="#e89960">/</text><text x="52" y="44" font-family="'Geist Mono', ui-monospace, SFMono-Regular, Menlo, Consolas, monospace" font-size="11" fill="#e89960" letter-spacing="0.08em">DIAGRAM 5 · STEERING</text><text x="40" y="78" font-family="Fraunces, 'Iowan Old Style', Georgia, serif" font-size="28" fill="#fafafa">Steering into specs</text><rect x="40" y="92" width="40" height="1.5" rx="0" fill="#e89960"/><text x="40" y="114" font-family="Geist, 'Geist Sans', Inter, system-ui, -apple-system, 'Segoe UI', sans-serif" font-size="13" fill="#ababab">Four documents describe the product. The decomposition turns them into an ordered queue.</text><text x="40" y="152" font-family="'Geist Mono', ui-monospace, SFMono-Regular, Menlo, Consolas, monospace" font-size="11" fill="#e89960">/</text><text x="52" y="152" font-family="'Geist Mono', ui-monospace, SFMono-Regular, Menlo, Consolas, monospace" font-size="11" fill="#e89960" letter-spacing="0.08em">STEERING DOCUMENTS</text><rect x="40" y="166" width="250" height="58" rx="6" fill="#2c1b0f" stroke="#e89960" stroke-width="1"/><rect x="40" y="166" width="3" height="58" rx="0" fill="#e89960"/><text x="54" y="188" font-family="'Geist Mono', ui-monospace, SFMono-Regular, Menlo, Consolas, monospace" font-size="13" font-weight="600" fill="#fafafa">product.md</text><text x="54" y="207" font-family="Geist, 'Geist Sans', Inter, system-ui, -apple-system, 'Segoe UI', sans-serif" font-size="11.5" fill="#ababab">Vision, users, features, success, non-goals</text><g class="loopmark" transform="translate(266.5 172.5) scale(0.625)" fill="none" stroke="#e89960" stroke-width="2" stroke-linecap="round" stroke-linejoin="round"><path d="M21 12a9 9 0 1 1-9-9c2.52 0 4.93 1 6.74 2.74L21 8"/><path d="M21 3v5h-5"/></g><rect x="40" y="238" width="250" height="58" rx="6" fill="#2c1b0f" stroke="#e89960" stroke-width="1"/><rect x="40" y="238" width="3" height="58" rx="0" fill="#e89960"/><text x="54" y="260" font-family="'Geist Mono', ui-monospace, SFMono-Regular, Menlo, Consolas, monospace" font-size="13" font-weight="600" fill="#fafafa">tech.md</text><text x="54" y="279" font-family="Geist, 'Geist Sans', Inter, system-ui, -apple-system, 'Segoe UI', sans-serif" font-size="11.5" fill="#ababab">Architecture, stack, performance, security</text><g class="loopmark" transform="translate(266.5 244.5) scale(0.625)" fill="none" stroke="#e89960" stroke-width="2" stroke-linecap="round" stroke-linejoin="round"><path d="M21 12a9 9 0 1 1-9-9c2.52 0 4.93 1 6.74 2.74L21 8"/><path d="M21 3v5h-5"/></g><rect x="40" y="310" width="250" height="58" rx="6" fill="#2c1b0f" stroke="#e89960" stroke-width="1"/><rect x="40" y="310" width="3" height="58" rx="0" fill="#e89960"/><text x="54" y="332" font-family="'Geist Mono', ui-monospace, SFMono-Regular, Menlo, Consolas, monospace" font-size="13" font-weight="600" fill="#fafafa">structure.md</text><text x="54" y="351" font-family="Geist, 'Geist Sans', Inter, system-ui, -apple-system, 'Segoe UI', sans-serif" font-size="11.5" fill="#ababab">Folders, naming, module boundaries</text><g class="loopmark" transform="translate(266.5 316.5) scale(0.625)" fill="none" stroke="#e89960" stroke-width="2" stroke-linecap="round" stroke-linejoin="round"><path d="M21 12a9 9 0 1 1-9-9c2.52 0 4.93 1 6.74 2.74L21 8"/><path d="M21 3v5h-5"/></g><rect x="40" y="382" width="250" height="58" rx="6" fill="#2c1b0f" stroke="#e89960" stroke-width="1" stroke-dasharray="4 3"/><rect x="40" y="382" width="3" height="58" rx="0" fill="#e89960"/><text x="54" y="404" font-family="'Geist Mono', ui-monospace, SFMono-Regular, Menlo, Consolas, monospace" font-size="13" font-weight="600" fill="#fafafa">design-system.md</text><text x="186.8" y="404" font-family="'Geist Mono', ui-monospace, SFMono-Regular, Menlo, Consolas, monospace" font-size="10" fill="#ababab" letter-spacing="0.06em">OPTIONAL</text><text x="54" y="423" font-family="Geist, 'Geist Sans', Inter, system-ui, -apple-system, 'Segoe UI', sans-serif" font-size="11.5" fill="#ababab">Principles, token roles, component rules</text><g class="loopmark" transform="translate(266.5 388.5) scale(0.625)" fill="none" stroke="#e89960" stroke-width="2" stroke-linecap="round" stroke-linejoin="round"><path d="M21 12a9 9 0 1 1-9-9c2.52 0 4.93 1 6.74 2.74L21 8"/><path d="M21 3v5h-5"/></g><rect x="40" y="466" width="250" height="58" rx="6" fill="none" stroke="#ababab" stroke-width="1" stroke-dasharray="4 3"/><text x="54" y="488" font-family="Geist, 'Geist Sans', Inter, system-ui, -apple-system, 'Segoe UI', sans-serif" font-size="13" font-weight="600" fill="#fafafa">Existing code</text><text x="54" y="507" font-family="Geist, 'Geist Sans', Inter, system-ui, -apple-system, 'Segoe UI', sans-serif" font-size="11.5" fill="#ababab">What must be refactored versus built new</text><g class="humanmark" transform="translate(266.5 472.5) scale(0.625)" fill="none" stroke="#e89960" stroke-width="2" stroke-linecap="round" stroke-linejoin="round"><path d="M19 21v-2a4 4 0 0 0-4-4H9a4 4 0 0 0-4 4v2"/><circle cx="12" cy="7" r="4"/></g><text x="380" y="152" font-family="'Geist Mono', ui-monospace, SFMono-Regular, Menlo, Consolas, monospace" font-size="11" fill="#e89960">/</text><text x="392" y="152" font-family="'Geist Mono', ui-monospace, SFMono-Regular, Menlo, Consolas, monospace" font-size="11" fill="#e89960" letter-spacing="0.08em">DECOMPOSITION</text><rect x="380" y="180" width="330" height="152" rx="8" fill="#271e0a" stroke="#d7aa42" stroke-width="1"/><rect x="380" y="180" width="3" height="152" rx="0" fill="#d7aa42"/><text x="396" y="204" font-family="'Geist Mono', ui-monospace, SFMono-Regular, Menlo, Consolas, monospace" font-size="13" font-weight="600" fill="#fafafa">decomposition.md</text><g class="loopmark" transform="translate(686.5 186.5) scale(0.625)" fill="none" stroke="#d7aa42" stroke-width="2" stroke-linecap="round" stroke-linejoin="round"><path d="M21 12a9 9 0 1 1-9-9c2.52 0 4.93 1 6.74 2.74L21 8"/><path d="M21 3v5h-5"/></g><text x="396" y="226" font-family="Geist, 'Geist Sans', Inter, system-ui, -apple-system, 'Segoe UI', sans-serif" font-size="12" fill="#d7aa42">·</text><text x="408" y="226" font-family="Geist, 'Geist Sans', Inter, system-ui, -apple-system, 'Segoe UI', sans-serif" font-size="12" fill="#fafafa">One entry per spec, with its end-to-end verification</text><text x="396" y="246" font-family="Geist, 'Geist Sans', Inter, system-ui, -apple-system, 'Segoe UI', sans-serif" font-size="12" fill="#d7aa42">·</text><text x="408" y="246" font-family="Geist, 'Geist Sans', Inter, system-ui, -apple-system, 'Segoe UI', sans-serif" font-size="12" fill="#fafafa">Dependency graph and critical path</text><text x="396" y="266" font-family="Geist, 'Geist Sans', Inter, system-ui, -apple-system, 'Segoe UI', sans-serif" font-size="12" fill="#d7aa42">·</text><text x="408" y="266" font-family="Geist, 'Geist Sans', Inter, system-ui, -apple-system, 'Segoe UI', sans-serif" font-size="12" fill="#fafafa">Cross-spec conventions</text><text x="396" y="286" font-family="Geist, 'Geist Sans', Inter, system-ui, -apple-system, 'Segoe UI', sans-serif" font-size="12" fill="#d7aa42">·</text><text x="408" y="286" font-family="Geist, 'Geist Sans', Inter, system-ui, -apple-system, 'Segoe UI', sans-serif" font-size="12" fill="#fafafa">What is not a spec</text><text x="396" y="306" font-family="Geist, 'Geist Sans', Inter, system-ui, -apple-system, 'Segoe UI', sans-serif" font-size="12" fill="#d7aa42">·</text><text x="408" y="306" font-family="Geist, 'Geist Sans', Inter, system-ui, -apple-system, 'Segoe UI', sans-serif" font-size="12" fill="#fafafa">Open questions for you</text><g class="humanmark" transform="translate(666.5 186.5) scale(0.625)" fill="none" stroke="#e89960" stroke-width="2" stroke-linecap="round" stroke-linejoin="round"><path d="M19 21v-2a4 4 0 0 0-4-4H9a4 4 0 0 0-4 4v2"/><circle cx="12" cy="7" r="4"/></g><path d="M290 195 L350 195 L350 256 L380 256" fill="none" stroke="#e89960" stroke-width="1.5" stroke-linejoin="round"/><path d="M290 267 L350 267 L350 256 L380 256" fill="none" stroke="#e89960" stroke-width="1.5" stroke-linejoin="round"/><path d="M290 339 L350 339 L350 256 L380 256" fill="none" stroke="#e89960" stroke-width="1.5" stroke-linejoin="round"/><path d="M290 411 L350 411 L350 256 L380 256" fill="none" stroke="#e89960" stroke-width="1.5" stroke-linejoin="round"/><path d="M290 495 L350 495 L350 256" fill="none" stroke="#ababab" stroke-width="1.5" stroke-dasharray="4 3" stroke-linejoin="round"/><path d="M350 256 L380 256" fill="none" stroke="#e89960" stroke-width="1.5" marker-end="url(#arr-e89960)" stroke-linejoin="round"/><text x="800" y="152" font-family="'Geist Mono', ui-monospace, SFMono-Regular, Menlo, Consolas, monospace" font-size="11" fill="#e89960">/</text><text x="812" y="152" font-family="'Geist Mono', ui-monospace, SFMono-Regular, Menlo, Consolas, monospace" font-size="11" fill="#e89960" letter-spacing="0.08em">THE QUEUE</text><rect x="800" y="180" width="220" height="66" rx="6" fill="#262626" stroke="#333333" stroke-width="1"/><text x="814" y="202" font-family="'Geist Mono', ui-monospace, SFMono-Regular, Menlo, Consolas, monospace" font-size="13" font-weight="600" fill="#fafafa">INDEX.md</text><text x="814" y="220" font-family="Geist, 'Geist Sans', Inter, system-ui, -apple-system, 'Segoe UI', sans-serif" font-size="11" fill="#ababab">Generated roadmap. Names the</text><text x="814" y="233" font-family="Geist, 'Geist Sans', Inter, system-ui, -apple-system, 'Segoe UI', sans-serif" font-size="11" fill="#ababab">next spec.</text><path d="M710 256 L770 256 L770 207 L800 207" fill="none" stroke="#d7aa42" stroke-width="1.5" marker-end="url(#arr-d7aa42)" stroke-linejoin="round"/><rect x="689.6" y="238" width="60.8" height="14" rx="3" fill="#0a0a0a"/><text x="720" y="248" font-family="'Geist Mono', ui-monospace, SFMono-Regular, Menlo, Consolas, monospace" font-size="11" fill="#d7aa42" text-anchor="middle">approved</text><path d="M900 234 L900 266" fill="none" stroke="#ababab" stroke-width="1.5" stroke-dasharray="3 3" stroke-linejoin="round"/><path d="M878 337 L920 297" fill="none" stroke="#52b5f4" stroke-width="1.5" marker-end="url(#arr-52b5f4)" stroke-linejoin="round"/><path d="M878 337 L920 377" fill="none" stroke="#52b5f4" stroke-width="1.5" marker-end="url(#arr-52b5f4)" stroke-linejoin="round"/><path d="M998 297 L1040 337" fill="none" stroke="#52b5f4" stroke-width="1.5" marker-end="url(#arr-52b5f4)" stroke-linejoin="round"/><path d="M998 377 L1040 337" fill="none" stroke="#52b5f4" stroke-width="1.5" marker-end="url(#arr-52b5f4)" stroke-linejoin="round"/><rect x="800" y="320" width="78" height="34" rx="17" fill="#0e212e" stroke="#52b5f4" stroke-width="1"/><text x="839" y="342" font-family="Geist, 'Geist Sans', Inter, system-ui, -apple-system, 'Segoe UI', sans-serif" font-size="12.5" font-weight="600" fill="#fafafa" text-anchor="middle">Spec A</text><rect x="920" y="280" width="78" height="34" rx="17" fill="#0e212e" stroke="#52b5f4" stroke-width="1"/><text x="959" y="302" font-family="Geist, 'Geist Sans', Inter, system-ui, -apple-system, 'Segoe UI', sans-serif" font-size="12.5" font-weight="600" fill="#fafafa" text-anchor="middle">Spec B</text><rect x="920" y="360" width="78" height="34" rx="17" fill="#0e212e" stroke="#52b5f4" stroke-width="1"/><text x="959" y="382" font-family="Geist, 'Geist Sans', Inter, system-ui, -apple-system, 'Segoe UI', sans-serif" font-size="12.5" font-weight="600" fill="#fafafa" text-anchor="middle">Spec C</text><rect x="1040" y="320" width="78" height="34" rx="17" fill="#0e212e" stroke="#52b5f4" stroke-width="1"/><text x="1079" y="342" font-family="Geist, 'Geist Sans', Inter, system-ui, -apple-system, 'Segoe UI', sans-serif" font-size="12.5" font-weight="600" fill="#fafafa" text-anchor="middle">Spec D</text><text x="800" y="430" font-family="Geist, 'Geist Sans', Inter, system-ui, -apple-system, 'Segoe UI', sans-serif" font-size="11.5" fill="#ababab">Worked in dependency order, one at a time.</text><text x="40" y="554" font-family="Geist, 'Geist Sans', Inter, system-ui, -apple-system, 'Segoe UI', sans-serif" font-size="11.5" fill="#ababab">Every steering document, and the decomposition, goes through the review loop before it is approved.</text><g class="loopmark" transform="translate(38.5 574.5) scale(0.625)" fill="none" stroke="#fafafa" stroke-width="2" stroke-linecap="round" stroke-linejoin="round"><path d="M21 12a9 9 0 1 1-9-9c2.52 0 4.93 1 6.74 2.74L21 8"/><path d="M21 3v5h-5"/></g><text x="58" y="586" font-family="Geist, 'Geist Sans', Inter, system-ui, -apple-system, 'Segoe UI', sans-serif" font-size="11.5" fill="#ababab">runs the review loop</text><g class="humanmark" transform="translate(206.7 574.5) scale(0.625)" fill="none" stroke="#e89960" stroke-width="2" stroke-linecap="round" stroke-linejoin="round"><path d="M19 21v-2a4 4 0 0 0-4-4H9a4 4 0 0 0-4 4v2"/><circle cx="12" cy="7" r="4"/></g><text x="226.2" y="586" font-family="Geist, 'Geist Sans', Inter, system-ui, -apple-system, 'Segoe UI', sans-serif" font-size="11.5" fill="#ababab">a person decides</text><rect x="351.56" y="576" width="12" height="12" rx="3" fill="none" stroke="#ababab" stroke-width="1" stroke-dasharray="3 2"/><text x="369.56" y="586" font-family="Geist, 'Geist Sans', Inter, system-ui, -apple-system, 'Segoe UI', sans-serif" font-size="11.5" fill="#ababab">optional</text></svg>